<svg xmlns="http://www.w3.org/2000/svg" width="32" height="32" viewBox="0 0 810 810" preserveAspectRatio="xMidYMid meet">
  <defs>
    <mask id="roundedMask">
      <rect width="810" height="810" rx="80" ry="80" fill="white"/>
    </mask>
    <linearGradient id="muscleGrad" x1="0%" y1="0%" x2="100%" y2="100%">
      <stop offset="0%" style="stop-color:#1e40af;stop-opacity:1" />
      <stop offset="100%" style="stop-color:#3b82f6;stop-opacity:1" />
    </linearGradient>
  </defs>
  <g mask="url(#roundedMask)">
    <!-- Background -->
    <rect width="810" height="810" fill="#1e40af"/>
    
    <!-- Flexed Arm Icon (Muscle/Strength Symbol) -->
    <!-- Upper arm -->
    <ellipse cx="300" cy="380" rx="80" ry="140" fill="url(#muscleGrad)" transform="rotate(-25 300 380)"/>
    
    <!-- Forearm -->
    <ellipse cx="450" cy="320" rx="70" ry="130" fill="#3b82f6" transform="rotate(35 450 320)"/>
    
    <!-- Bicep muscle (bulge) -->
    <ellipse cx="340" cy="340" rx="90" ry="100" fill="#60a5fa" transform="rotate(-15 340 340)"/>
    <ellipse cx="360" cy="350" rx="70" ry="80" fill="#93c5fd" transform="rotate(-15 360 350)"/>
    
    <!-- Hand/Fist -->
    <circle cx="520" cy="280" r="55" fill="#1e40af"/>
    <circle cx="540" cy="270" r="45" fill="#1e3a8a"/>
    
    <!-- Muscle definition lines -->
    <path d="M 320 300 Q 340 320 350 360" stroke="#1e3a8a" stroke-width="4" fill="none" opacity="0.6"/>
    <path d="M 340 290 Q 360 310 370 350" stroke="#1e3a8a" stroke-width="4" fill="none" opacity="0.6"/>
    
    <!-- FV Letters integrated -->
    <text x="405" y="480" font-family="Arial, sans-serif" font-size="120" font-weight="bold" fill="#ffffff" text-anchor="middle">FV</text>
    <text x="405" y="480" font-family="Arial, sans-serif" font-size="120" font-weight="bold" fill="none" stroke="#60a5fa" stroke-width="3" text-anchor="middle">FV</text>
  </g>
</svg>
